<?xml version="1.0" standalone="no"?><!DOCTYPE svg PUBLIC "-//W3C//DTD SVG 1.1//EN" "http://www.w3.org/Graphics/SVG/1.1/DTD/svg11.dtd"><svg t="1728810291341" class="icon" viewBox="0 0 1024 1024" version="1.1" xmlns="http://www.w3.org/2000/svg" p-id="4304" xmlns:xlink="http://www.w3.org/1999/xlink" width="200" height="200"><path d="M466.912 99.3a79.102 79.102 0 0 1 73.934 0l334.6 176.872a79.102 79.102 0 0 1 0 139.851l-17.35 9.176 17.402 9.176a79.102 79.102 0 0 1 6.75 135.844l-6.803 4.008-17.35 9.175 17.403 9.176a79.102 79.102 0 0 1 6.75 135.844l-6.803 4.008-334.6 176.87a79.102 79.102 0 0 1-66.866 3.323l-7.067-3.322L132.26 732.43a79.102 79.102 0 0 1-6.803-135.791l6.856-4.06 17.296-9.177-17.35-9.175a79.102 79.102 0 0 1-6.802-135.791l6.856-4.061 17.296-9.176-17.35-9.176a79.102 79.102 0 0 1-36.175-99.984l3.217-6.855a79.102 79.102 0 0 1 33.011-33.065z m335.76 513.37L540.846 751.098a79.102 79.102 0 0 1-66.867 3.322l-7.067-3.322-260.93-137.848-49.043 25.998a26.367 26.367 0 0 0-4.007 44.033l4.007 2.637 334.6 176.818a26.367 26.367 0 0 0 19.88 1.951l4.747-1.95 334.652-176.872a26.367 26.367 0 0 0 4.008-44.033l-4.008-2.584-48.146-26.525z m-1.002-157.676l-260.824 137.9a79.102 79.102 0 0 1-73.934 0l-260.93-137.847-49.043 25.998a26.367 26.367 0 0 0-4.007 44.033l4.007 2.637 334.6 176.818a26.367 26.367 0 0 0 19.88 1.951l4.747-1.95 334.652-176.872a26.367 26.367 0 0 0 4.008-44.033l-4.008-2.584-49.148-25.998zM516.166 145.918a26.367 26.367 0 0 0-24.627 0l-334.6 176.871a26.367 26.367 0 0 0 0 46.617l334.6 176.871a26.367 26.367 0 0 0 24.627 0l334.652-176.87a26.367 26.367 0 0 0 0-46.618z" fill="#000000" p-id="4305"></path></svg>